<?xml version="1.0" encoding="UTF-8"?>
<svg id="Layer_1" data-name="Layer 1" xmlns="http://www.w3.org/2000/svg" version="1.1" viewBox="0 0 1056 1128">
  <defs>
    <style>
      .cls-1 {
        fill: #e1b969;
      }

      .cls-1, .cls-2 {
        stroke-width: 0px;
      }

      .cls-2 {
        fill: #fff;
      }
    </style>
  </defs>
  <path class="cls-1" d="M519.4,435.54h-85.63v-117.54h81.05l28.05-60.35h-175.45v422.14h66.35v-183.9h57.51l27.88-59.96"/>
  <path class="cls-2" d="M707.3,816.91v-74.18c0-47.63-10.82-78.99-44-89.26v-1.19c29.54-12.09,43.45-39.81,43.45-83.18v-25.99c0-65.09-29.55-97.08-98.35-97.08h-70.54l-27.73,58.22v363.93h66.35v-180.9h22.91c30.18,0,41.55,12.64,41.55,51.82v77.26c0,34.36,2.45,41,6.08,51.82h67.54c-6.63-15.64-7.27-30.73-7.27-51.27ZM640.39,582.38c0,33.73-15.09,44.55-39.81,44.55h-24.1v-120.54h30.1c23.54,0,33.81,13.27,33.81,43.37v32.62Z"/>
</svg>