<?xml version="1.0" encoding="UTF-8"?>
<svg id="Layer_1" data-name="Layer 1" xmlns="http://www.w3.org/2000/svg" version="1.1" viewBox="0 0 1080 1170.01">
  <defs>
    <style>
      .cls-1 {
        fill: #0a223d;
      }

      .cls-1, .cls-2 {
        stroke-width: 0px;
      }

      .cls-2 {
        fill: #e1b969;
      }
    </style>
  </defs>
  <path class="cls-2" d="M510.59,455.93h-86.9v-119.29h82.25l28.46-61.25h-178.05v428.42h67.34v-186.63h58.36l28.3-60.85"/>
  <path class="cls-1" d="M701.29,842.97v-75.28c0-48.34-10.98-80.17-44.65-90.59v-1.2c29.98-12.27,44.09-40.4,44.09-84.42v-26.38c0-66.06-29.98-98.53-99.81-98.53h-71.59l-28.14,59.08v369.33h67.34v-183.59h23.25c30.63,0,42.17,12.83,42.17,52.59v78.4c0,34.87,2.49,41.61,6.17,52.59h68.54c-6.73-15.87-7.37-31.19-7.37-52.03ZM633.39,604.95c0,34.23-15.31,45.21-40.41,45.21h-24.45v-122.34h30.54c23.89,0,34.31,13.47,34.31,44.01v33.11Z"/>
</svg>