<?xml version="1.0" encoding="UTF-8"?>
<svg id="Layer_1" data-name="Layer 1" xmlns="http://www.w3.org/2000/svg" version="1.1" viewBox="0 0 970.12 1169">
  <defs>
    <style>
      .cls-1 {
        fill: #fff;
        stroke-width: 0px;
      }
    </style>
  </defs>
  <path class="cls-1" d="M443.77,459.31h-92.57v-127.07h87.61l30.32-65.24h-189.66v456.35h71.73v-198.8h62.17l30.14-64.81"/>
  <path class="cls-1" d="M646.89,871.58v-80.19c0-51.49-11.7-85.39-47.56-96.5v-1.28c31.94-13.07,46.97-43.04,46.97-89.92v-28.1c0-70.36-31.94-104.95-106.32-104.95h-76.26l-29.97,62.94v393.41h71.73v-195.55h24.76c32.62,0,44.92,13.66,44.92,56.02v83.52c0,37.15,2.65,44.32,6.58,56.02h73.01c-7.17-16.91-7.86-33.22-7.86-55.42ZM574.57,618.04c0,36.46-16.31,48.16-43.04,48.16h-26.05v-130.31h32.54c25.45,0,36.55,14.35,36.55,46.88v35.27Z"/>
</svg>