<?xml version="1.0" encoding="utf-8"?>
<!-- Generator: Adobe Illustrator 28.2.0, SVG Export Plug-In . SVG Version: 6.00 Build 0)  -->
<svg version="1.1" id="Layer_1" xmlns="http://www.w3.org/2000/svg" xmlns:xlink="http://www.w3.org/1999/xlink" x="0px" y="0px"
	 viewBox="0 0 1967.5 870.75" style="enable-background:new 0 0 1967.5 870.75;" xml:space="preserve">
<style type="text/css">
	.st0{fill:#0A223E;}
	.st1{fill:#E0B969;}
	.st2{fill:#0A223D;}
	.st3{fill:#FFFFFF;}
	.st4{fill:#E1B969;}
	.st5{fill:#333333;}
	.st6{fill:#CCCCCC;}
	.st7{fill:#999999;}
</style>
<g>
	<g>
		<path d="M256.5,74.84h72.71c50.85,0,72.71,23.64,72.71,71.82v19.18c0,32.11-10.26,52.63-32.11,61.56v0.89
			c24.53,7.58,32.56,30.78,32.56,66.01v54.87c0,15.16,0.45,26.32,5.35,37.91h-49.96c-2.68-8.03-4.46-12.94-4.46-38.36v-57.09
			c0-28.99-8.47-38.36-30.78-38.36h-16.95v133.81H256.5V74.84z M323.4,208.65c18.29,0,29.44-8.03,29.44-33v-24.09
			c0-22.3-7.58-32.11-24.98-32.11h-22.3v89.21H323.4z"/>
		<path d="M540.62,325.96h-56.65l-8.48,61.11h-45.49l50.85-312.23h66.46l50.85,312.23h-49.07L540.62,325.96z M534.37,283.59
			l-22.3-157.45l-21.86,157.45H534.37z"/>
		<path d="M627.57,74.84h69.14l32.56,226.59l32.56-226.59h69.13v312.23h-46.38V150.66L748,387.07h-41.03l-36.58-236.41v236.41
			h-42.82V74.84z"/>
		<path d="M873.76,74.84h133.82v44.6h-84.75v82.52h67.35v44.6h-67.35v95.9h84.75v44.6H873.76V74.84z"/>
		<path d="M208.66,206.41h-63.34v-86.94h59.95l20.74-44.64H96.24v312.25h49.08V251.05h42.54l20.62-44.35"/>
	</g>
	<g>
		<path d="M278.66,453.78h133.82v44.6h-84.75v82.52h67.35v44.6h-67.35v95.9h84.75v44.6H278.66V453.78z"/>
		<path d="M433.87,691.98v-17.84h46.39v21.41c0,22.3,9.81,30.33,25.42,30.33c15.61,0,25.87-8.03,25.87-31.22
			c0-25.87-10.7-41.93-42.82-70.03c-41.04-36.13-54.86-62-54.86-97.69c0-49.07,25.43-77.61,73.15-77.61s71.37,28.55,71.37,78.5
			v12.94H532V524.7c0-22.3-8.92-30.78-24.54-30.78c-15.61,0-24.98,8.48-24.98,29.89c0,22.75,11.15,38.81,43.26,66.91
			c41.04,36.13,54.42,61.55,54.42,100.36c0,50.85-25.87,79.4-74.04,79.4C457.95,770.48,433.87,741.93,433.87,691.98z"/>
		<path d="M769.71,691.98V527.83c0-49.96,26.32-78.5,74.49-78.5c48.18,0,74.49,28.55,74.49,78.5v164.15
			c0,49.96-26.32,78.5-74.49,78.5C796.02,770.48,769.71,741.93,769.71,691.98z M869.62,695.1V524.7c0-22.3-9.81-30.78-25.43-30.78
			c-15.61,0-25.42,8.48-25.42,30.78V695.1c0,22.3,9.81,30.78,25.42,30.78C859.8,725.88,869.62,717.4,869.62,695.1z"/>
		<path d="M954.35,453.78h72.71c50.85,0,72.71,23.64,72.71,71.82v19.18c0,32.11-10.26,52.63-32.11,61.56v0.89
			c24.53,7.58,32.56,30.78,32.56,66.01v54.87c0,15.16,0.45,26.32,5.35,37.91h-49.96c-2.68-8.03-4.46-12.94-4.46-38.36v-57.09
			c0-28.99-8.47-38.36-30.78-38.36h-16.95v133.81h-49.07V453.78z M1021.26,587.6c18.29,0,29.44-8.03,29.44-33V530.5
			c0-22.3-7.58-32.11-24.98-32.11h-22.3v89.21H1021.26z"/>
		<path d="M1234.9,704.91h-56.65l-8.48,61.11h-45.49l50.85-312.23h66.46l50.85,312.23h-49.07L1234.9,704.91z M1228.65,662.53
			l-22.3-157.45l-21.86,157.45H1228.65z"/>
		<path d="M1463.24,453.78h49.07v312.23h-49.07V453.78z"/>
		<path d="M1547.97,691.98V527.83c0-49.96,26.32-78.5,74.49-78.5c48.18,0,74.49,28.55,74.49,78.5v164.15
			c0,49.96-26.32,78.5-74.49,78.5C1574.29,770.48,1547.97,741.93,1547.97,691.98z M1647.89,695.1V524.7
			c0-22.3-9.81-30.78-25.43-30.78s-25.42,8.48-25.42,30.78V695.1c0,22.3,9.81,30.78,25.42,30.78S1647.89,717.4,1647.89,695.1z"/>
		<path d="M1732.61,453.78h60.66l49.51,186.89V453.78h43.71v312.23h-49.51l-60.66-227.93v227.93h-43.71V453.78z"/>
		<path d="M242.08,728.1v-54.87c0-35.23-8.01-58.43-32.54-66.03v-0.88c21.85-8.94,32.14-29.45,32.14-61.53v-19.22
			c0-48.15-21.85-71.81-72.75-71.81h-52.18l-20.51,43.06v269.19h49.08v-133.8h16.94c22.32,0,30.74,9.35,30.74,38.33v57.14
			c0,25.42,1.81,30.33,4.5,38.33h49.96C242.55,754.46,242.08,743.3,242.08,728.1z M192.59,554.63c0,24.95-11.16,32.95-29.45,32.95
			h-17.82v-89.16h22.26c17.41,0,25.01,9.82,25.01,32.08V554.63z"/>
		<path d="M597.15,453.78v44.64h51.3v267.61h49.08V498.42h29.8l21.39-44.64H597.15z"/>
		<path d="M1285.33,453.78v44.64h51.3v267.61h49.08V498.42h29.8l21.39-44.64H1285.33z"/>
	</g>
</g>
</svg>
