<?xml version="1.0" encoding="utf-8"?>
<!-- Generator: Adobe Illustrator 28.2.0, SVG Export Plug-In . SVG Version: 6.00 Build 0)  -->
<svg version="1.1" id="Layer_1" xmlns="http://www.w3.org/2000/svg" xmlns:xlink="http://www.w3.org/1999/xlink" x="0px" y="0px"
	 viewBox="0 0 1913 854.62" style="enable-background:new 0 0 1913 854.62;" xml:space="preserve">
<style type="text/css">
	.st0{fill:#0A223E;}
	.st1{fill:#E0B969;}
	.st2{fill:#0A223D;}
	.st3{fill:#FFFFFF;}
	.st4{fill:#E1B969;}
	.st5{fill:#333333;}
	.st6{fill:#CCCCCC;}
	.st7{fill:#999999;}
</style>
<g>
	<g>
		<path class="st4" d="M287.46,110.65h66.19c46.3,0,66.19,21.52,66.19,65.38v17.46c0,29.24-9.34,47.92-29.24,56.04v0.81
			c22.33,6.9,29.64,28.02,29.64,60.1v49.95c0,13.8,0.41,23.96,4.87,34.51h-45.48c-2.44-7.31-4.06-11.78-4.06-34.93v-51.98
			c0-26.4-7.71-34.92-28.02-34.92h-15.43v121.82h-44.67V110.65z M348.37,232.48c16.65,0,26.8-7.31,26.8-30.05V180.5
			c0-20.3-6.9-29.24-22.74-29.24h-20.31v81.22H348.37z"/>
		<path class="st4" d="M546.12,339.29h-51.57l-7.72,55.63h-41.42l46.29-284.26h60.51l46.3,284.26h-44.67L546.12,339.29z
			 M540.44,300.7l-20.3-143.35l-19.9,143.35H540.44z"/>
		<path class="st4" d="M625.29,110.65h62.95l29.64,206.29l29.65-206.29h62.94v284.26h-42.23V179.69l-33.3,215.23h-37.36
			l-33.3-215.23v215.23h-38.99V110.65z"/>
		<path class="st4" d="M849.43,110.65h121.83v40.61H894.1v75.13h61.32V267H894.1v87.31h77.16v40.61H849.43V110.65z"/>
		<path class="st4" d="M243.9,230.44h-57.66v-79.15h54.58l18.89-40.64H141.56v284.28h44.68V271.08h38.73l18.78-40.38"/>
	</g>
	<g>
		<path class="st4" d="M307.63,455.66h121.83v40.61H352.3v75.13h61.32V612H352.3v87.31h77.16v40.61H307.63V455.66z"/>
		<path class="st4" d="M448.94,672.51v-16.24h42.23v19.49c0,20.31,8.93,27.62,23.14,27.62c14.21,0,23.55-7.31,23.55-28.43
			c0-23.55-9.75-38.17-38.98-63.76c-37.36-32.89-49.95-56.45-49.95-88.94c0-44.67,23.15-70.66,66.6-70.66
			c43.45,0,64.97,25.99,64.97,71.47v11.78h-42.23v-14.62c0-20.3-8.12-28.02-22.34-28.02c-14.21,0-22.74,7.72-22.74,27.21
			c0,20.71,10.15,35.33,39.39,60.92c37.36,32.89,49.54,56.04,49.54,91.37c0,46.3-23.55,72.29-67.41,72.29
			C470.87,743.98,448.94,717.99,448.94,672.51z"/>
		<path class="st4" d="M754.69,672.51V523.06c0-45.48,23.96-71.47,67.81-71.47c43.86,0,67.82,25.99,67.82,71.47v149.45
			c0,45.48-23.96,71.47-67.82,71.47C778.65,743.98,754.69,717.99,754.69,672.51z M845.66,675.35V520.22
			c0-20.3-8.94-28.02-23.15-28.02c-14.21,0-23.14,7.72-23.14,28.02v155.13c0,20.31,8.93,28.02,23.14,28.02
			C836.72,703.37,845.66,695.66,845.66,675.35z"/>
		<path class="st4" d="M922.79,455.66h66.19c46.3,0,66.19,21.52,66.19,65.38v17.46c0,29.24-9.34,47.92-29.24,56.04v0.81
			c22.33,6.9,29.64,28.02,29.64,60.1v49.95c0,13.8,0.41,23.96,4.87,34.51h-45.48c-2.44-7.31-4.06-11.78-4.06-34.93v-51.98
			c0-26.4-7.71-34.92-28.02-34.92h-15.43v121.82h-44.67V455.66z M983.71,577.48c16.65,0,26.8-7.31,26.8-30.05V525.5
			c0-20.3-6.9-29.24-22.74-29.24h-20.31v81.22H983.71z"/>
		<path class="st4" d="M1178.22,684.29h-51.57l-7.72,55.63h-41.42l46.29-284.26h60.51l46.3,284.26h-44.67L1178.22,684.29z
			 M1172.53,645.71l-20.3-143.35l-19.9,143.35H1172.53z"/>
		<path class="st4" d="M1386.1,455.66h44.67v284.26h-44.67V455.66z"/>
		<path class="st4" d="M1463.24,672.51V523.06c0-45.48,23.96-71.47,67.81-71.47c43.86,0,67.82,25.99,67.82,71.47v149.45
			c0,45.48-23.96,71.47-67.82,71.47C1487.2,743.98,1463.24,717.99,1463.24,672.51z M1554.21,675.35V520.22
			c0-20.3-8.94-28.02-23.15-28.02c-14.21,0-23.14,7.72-23.14,28.02v155.13c0,20.31,8.93,28.02,23.14,28.02
			C1545.27,703.37,1554.21,695.66,1554.21,675.35z"/>
		<path class="st4" d="M1631.34,455.66h55.23l45.08,170.15V455.66h39.8v284.26h-45.08l-55.23-207.51v207.51h-39.8V455.66z"/>
		<path class="st4" d="M274.33,705.4v-49.95c0-32.08-7.29-53.2-29.63-60.11v-0.8c19.89-8.14,29.26-26.81,29.26-56.01v-17.5
			c0-43.83-19.9-65.38-66.23-65.38h-47.5l-18.67,39.21v245.07h44.68V618.11h15.43c20.32,0,27.98,8.51,27.98,34.9v52.03
			c0,23.14,1.65,27.61,4.1,34.9h45.48C274.76,729.39,274.33,719.23,274.33,705.4z M229.28,547.47c0,22.71-10.16,30-26.81,30h-16.23
			v-81.18h20.27c15.85,0,22.77,8.94,22.77,29.2V547.47z"/>
		<path class="st4" d="M597.59,455.65v40.64h46.71v243.64h44.68V496.29h27.13l19.47-40.64H597.59z"/>
		<path class="st4" d="M1224.12,455.65v40.64h46.71v243.64h44.68V496.29h27.13l19.47-40.64H1224.12z"/>
	</g>
</g>
</svg>
