<?xml version="1.0" encoding="utf-8"?>
<!-- Generator: Adobe Illustrator 28.2.0, SVG Export Plug-In . SVG Version: 6.00 Build 0)  -->
<svg version="1.1" id="Layer_1" xmlns="http://www.w3.org/2000/svg" xmlns:xlink="http://www.w3.org/1999/xlink" x="0px" y="0px"
	 viewBox="0 0 1919 945.75" style="enable-background:new 0 0 1919 945.75;" xml:space="preserve">
<style type="text/css">
	.st0{fill:#0A223E;}
	.st1{fill:#E0B969;}
	.st2{fill:#0A223D;}
	.st3{fill:#FFFFFF;}
	.st4{fill:#E1B969;}
	.st5{fill:#333333;}
	.st6{fill:#CCCCCC;}
	.st7{fill:#999999;}
</style>
<g>
	<g>
		<path class="st6" d="M233.77,147.67h66.19c46.3,0,66.19,21.52,66.19,65.38v17.46c0,29.24-9.34,47.92-29.24,56.04v0.81
			c22.33,6.9,29.64,28.02,29.64,60.1v49.95c0,13.8,0.41,23.96,4.87,34.51h-45.48c-2.44-7.31-4.06-11.78-4.06-34.93v-51.98
			c0-26.4-7.71-34.92-28.02-34.92h-15.43v121.82h-44.67V147.67z M294.69,269.5c16.65,0,26.8-7.31,26.8-30.05v-21.93
			c0-20.3-6.9-29.24-22.74-29.24h-20.31v81.22H294.69z"/>
		<path class="st6" d="M492.44,376.3h-51.57l-7.72,55.63h-41.42l46.29-284.26h60.51l46.3,284.26h-44.67L492.44,376.3z
			 M486.75,337.72l-20.3-143.35l-19.9,143.35H486.75z"/>
		<path class="st6" d="M571.6,147.67h62.95l29.64,206.29l29.65-206.29h62.94v284.26h-42.23V216.71l-33.3,215.23h-37.36l-33.3-215.23
			v215.23H571.6V147.67z"/>
		<path class="st6" d="M795.74,147.67h121.83v40.61h-77.16v75.13h61.32v40.61h-61.32v87.31h77.16v40.61H795.74V147.67z"/>
		<path class="st6" d="M190.22,267.46h-57.66V188.3h54.58l18.89-40.64H87.87v284.28h44.68V308.1h38.73l18.78-40.38"/>
	</g>
	<g>
		<path class="st6" d="M253.95,492.67h121.83v40.61h-77.16v75.13h61.32v40.61h-61.32v87.31h77.16v40.61H253.95V492.67z"/>
		<path class="st6" d="M395.25,709.53v-16.24h42.23v19.49c0,20.31,8.93,27.62,23.14,27.62s23.55-7.31,23.55-28.43
			c0-23.55-9.75-38.17-38.98-63.76c-37.36-32.89-49.95-56.45-49.95-88.94c0-44.67,23.15-70.66,66.6-70.66s64.97,25.99,64.97,71.47
			v11.78H484.6v-14.62c0-20.3-8.12-28.02-22.34-28.02c-14.21,0-22.74,7.72-22.74,27.21c0,20.71,10.15,35.33,39.39,60.92
			c37.36,32.89,49.54,56.04,49.54,91.37c0,46.3-23.55,72.29-67.41,72.29C417.18,781,395.25,755.01,395.25,709.53z"/>
		<path class="st6" d="M701.01,709.53V560.08c0-45.48,23.96-71.47,67.81-71.47c43.86,0,67.82,25.99,67.82,71.47v149.45
			c0,45.48-23.96,71.47-67.82,71.47C724.97,781,701.01,755.01,701.01,709.53z M791.97,712.37V557.24c0-20.3-8.94-28.02-23.15-28.02
			s-23.14,7.72-23.14,28.02v155.13c0,20.31,8.93,28.02,23.14,28.02S791.97,732.68,791.97,712.37z"/>
		<path class="st6" d="M869.11,492.67h66.19c46.3,0,66.19,21.52,66.19,65.38v17.46c0,29.24-9.34,47.92-29.24,56.04v0.81
			c22.33,6.9,29.64,28.02,29.64,60.1v49.95c0,13.8,0.41,23.96,4.87,34.51h-45.48c-2.44-7.31-4.06-11.78-4.06-34.93v-51.98
			c0-26.4-7.71-34.92-28.02-34.92h-15.43v121.82h-44.67V492.67z M930.02,614.5c16.65,0,26.8-7.31,26.8-30.05v-21.93
			c0-20.3-6.9-29.24-22.74-29.24h-20.31v81.22H930.02z"/>
		<path class="st6" d="M1124.53,721.31h-51.57l-7.72,55.63h-41.42l46.29-284.26h60.51l46.3,284.26h-44.67L1124.53,721.31z
			 M1118.84,682.72l-20.3-143.35l-19.9,143.35H1118.84z"/>
		<path class="st6" d="M1332.41,492.67h44.67v284.26h-44.67V492.67z"/>
		<path class="st6" d="M1409.56,709.53V560.08c0-45.48,23.96-71.47,67.81-71.47c43.86,0,67.82,25.99,67.82,71.47v149.45
			c0,45.48-23.96,71.47-67.82,71.47C1433.52,781,1409.56,755.01,1409.56,709.53z M1500.52,712.37V557.24
			c0-20.3-8.94-28.02-23.15-28.02c-14.21,0-23.14,7.72-23.14,28.02v155.13c0,20.31,8.93,28.02,23.14,28.02
			C1491.59,740.39,1500.52,732.68,1500.52,712.37z"/>
		<path class="st6" d="M1577.66,492.67h55.23l45.08,170.15V492.67h39.8v284.26h-45.08l-55.23-207.51v207.51h-39.8V492.67z"/>
		<path class="st6" d="M220.65,742.42v-49.95c0-32.08-7.29-53.2-29.63-60.11v-0.8c19.89-8.14,29.26-26.81,29.26-56.01v-17.5
			c0-43.83-19.9-65.38-66.23-65.38h-47.5l-18.67,39.21v245.07h44.68V655.13h15.43c20.32,0,27.98,8.51,27.98,34.9v52.03
			c0,23.14,1.65,27.61,4.1,34.9h45.48C221.07,766.41,220.65,756.25,220.65,742.42z M175.59,584.48c0,22.71-10.16,30-26.81,30h-16.23
			v-81.18h20.27c15.85,0,22.77,8.94,22.77,29.2V584.48z"/>
		<path class="st6" d="M543.91,492.67v40.64h46.71v243.64h44.68V533.31h27.13l19.47-40.64H543.91z"/>
		<path class="st6" d="M1170.44,492.67v40.64h46.71v243.64h44.68V533.31h27.13l19.47-40.64H1170.44z"/>
	</g>
</g>
</svg>
