<?xml version="1.0" encoding="utf-8"?>
<!-- Generator: Adobe Illustrator 28.2.0, SVG Export Plug-In . SVG Version: 6.00 Build 0)  -->
<svg version="1.1" id="Layer_1" xmlns="http://www.w3.org/2000/svg" xmlns:xlink="http://www.w3.org/1999/xlink" x="0px" y="0px"
	 viewBox="0 0 2068 953.5" style="enable-background:new 0 0 2068 953.5;" xml:space="preserve">
<style type="text/css">
	.st0{fill:#0A223E;}
	.st1{fill:#E0B969;}
	.st2{fill:#0A223D;}
	.st3{fill:#FFFFFF;}
	.st4{fill:#E1B969;}
	.st5{fill:#333333;}
	.st6{fill:#CCCCCC;}
	.st7{fill:#999999;}
</style>
<g>
	<g>
		<path class="st5" d="M281,117.09h72.71c50.85,0,72.71,23.64,72.71,71.82v19.18c0,32.11-10.26,52.63-32.11,61.56v0.89
			c24.53,7.58,32.56,30.78,32.56,66.01v54.87c0,15.16,0.45,26.32,5.35,37.91h-49.96c-2.68-8.03-4.46-12.94-4.46-38.36v-57.09
			c0-28.99-8.47-38.36-30.78-38.36h-16.95v133.81H281V117.09z M347.9,250.9c18.29,0,29.44-8.03,29.44-33V193.8
			c0-22.3-7.58-32.11-24.98-32.11h-22.3v89.21H347.9z"/>
		<path class="st5" d="M565.12,368.21h-56.65l-8.48,61.11h-45.49l50.85-312.23h66.46l50.85,312.23h-49.07L565.12,368.21z
			 M558.87,325.84l-22.3-157.45l-21.86,157.45H558.87z"/>
		<path class="st5" d="M652.07,117.09h69.14l32.56,226.59l32.56-226.59h69.13v312.23h-46.38V192.91L772.5,429.32h-41.03
			l-36.58-236.41v236.41h-42.82V117.09z"/>
		<path class="st5" d="M898.26,117.09h133.82v44.6h-84.75v82.52h67.35v44.6h-67.35v95.9h84.75v44.6H898.26V117.09z"/>
		<path class="st5" d="M233.16,248.66h-63.34v-86.94h59.95l20.74-44.64H120.74v312.25h49.08V293.3h42.54l20.62-44.35"/>
	</g>
	<g>
		<path class="st5" d="M303.16,496.03h133.82v44.6h-84.75v82.52h67.35v44.6h-67.35v95.9h84.75v44.6H303.16V496.03z"/>
		<path class="st5" d="M458.37,734.23v-17.84h46.39v21.41c0,22.3,9.81,30.33,25.42,30.33c15.61,0,25.87-8.03,25.87-31.22
			c0-25.87-10.7-41.93-42.82-70.03c-41.04-36.13-54.86-62-54.86-97.69c0-49.07,25.43-77.61,73.15-77.61
			c47.73,0,71.37,28.55,71.37,78.5v12.94H556.5v-16.06c0-22.3-8.92-30.78-24.54-30.78c-15.61,0-24.98,8.48-24.98,29.89
			c0,22.75,11.15,38.81,43.26,66.91c41.04,36.13,54.42,61.55,54.42,100.36c0,50.85-25.87,79.4-74.04,79.4
			C482.45,812.73,458.37,784.18,458.37,734.23z"/>
		<path class="st5" d="M794.21,734.23V570.08c0-49.96,26.32-78.5,74.49-78.5c48.18,0,74.49,28.55,74.49,78.5v164.15
			c0,49.96-26.32,78.5-74.49,78.5C820.52,812.73,794.21,784.18,794.21,734.23z M894.12,737.35V566.95c0-22.3-9.81-30.78-25.43-30.78
			c-15.61,0-25.42,8.48-25.42,30.78v170.39c0,22.3,9.81,30.78,25.42,30.78C884.3,768.13,894.12,759.65,894.12,737.35z"/>
		<path class="st5" d="M978.85,496.03h72.71c50.85,0,72.71,23.64,72.71,71.82v19.18c0,32.11-10.26,52.63-32.11,61.56v0.89
			c24.53,7.58,32.56,30.78,32.56,66.01v54.87c0,15.16,0.45,26.32,5.35,37.91h-49.96c-2.68-8.03-4.46-12.94-4.46-38.36v-57.09
			c0-28.99-8.47-38.36-30.78-38.36h-16.95v133.81h-49.07V496.03z M1045.76,629.85c18.29,0,29.44-8.03,29.44-33v-24.09
			c0-22.3-7.58-32.11-24.98-32.11h-22.3v89.21H1045.76z"/>
		<path class="st5" d="M1259.4,747.16h-56.65l-8.48,61.11h-45.49l50.85-312.23h66.46l50.85,312.23h-49.07L1259.4,747.16z
			 M1253.15,704.78l-22.3-157.45l-21.86,157.45H1253.15z"/>
		<path class="st5" d="M1487.74,496.03h49.07v312.23h-49.07V496.03z"/>
		<path class="st5" d="M1572.47,734.23V570.08c0-49.96,26.32-78.5,74.49-78.5c48.18,0,74.49,28.55,74.49,78.5v164.15
			c0,49.96-26.32,78.5-74.49,78.5C1598.79,812.73,1572.47,784.18,1572.47,734.23z M1672.39,737.35V566.95
			c0-22.3-9.81-30.78-25.43-30.78s-25.42,8.48-25.42,30.78v170.39c0,22.3,9.81,30.78,25.42,30.78S1672.39,759.65,1672.39,737.35z"/>
		<path class="st5" d="M1757.11,496.03h60.66l49.51,186.89V496.03H1911v312.23h-49.51l-60.66-227.93v227.93h-43.71V496.03z"/>
		<path class="st5" d="M266.58,770.35v-54.87c0-35.23-8.01-58.43-32.54-66.03v-0.88c21.85-8.94,32.14-29.45,32.14-61.53v-19.22
			c0-48.15-21.85-71.81-72.75-71.81h-52.18l-20.51,43.06v269.19h49.08v-133.8h16.94c22.32,0,30.74,9.35,30.74,38.33v57.14
			c0,25.42,1.81,30.33,4.5,38.33h49.96C267.05,796.71,266.58,785.55,266.58,770.35z M217.09,596.88c0,24.95-11.16,32.95-29.45,32.95
			h-17.82v-89.16h22.26c17.41,0,25.01,9.82,25.01,32.08V596.88z"/>
		<path class="st5" d="M621.65,496.03v44.64h51.3v267.61h49.08V540.67h29.8l21.39-44.64H621.65z"/>
		<path class="st5" d="M1309.83,496.03v44.64h51.3v267.61h49.08V540.67h29.8l21.39-44.64H1309.83z"/>
	</g>
</g>
</svg>
