<?xml version="1.0" encoding="utf-8"?>
<!-- Generator: Adobe Illustrator 28.2.0, SVG Export Plug-In . SVG Version: 6.00 Build 0)  -->
<svg version="1.1" id="Layer_1" xmlns="http://www.w3.org/2000/svg" xmlns:xlink="http://www.w3.org/1999/xlink" x="0px" y="0px"
	 viewBox="0 0 1986 878.25" style="enable-background:new 0 0 1986 878.25;" xml:space="preserve">
<style type="text/css">
	.st0{fill:#0A223E;}
	.st1{fill:#E0B969;}
	.st2{fill:#0A223D;}
	.st3{fill:#FFFFFF;}
	.st4{fill:#E1B969;}
	.st5{fill:#333333;}
	.st6{fill:#CCCCCC;}
	.st7{fill:#999999;}
</style>
<g>
	<g>
		<path class="st0" d="M258.13,91.31h72.71c50.85,0,72.71,23.64,72.71,71.82v19.18c0,32.11-10.26,52.63-32.11,61.56v0.89
			c24.53,7.58,32.56,30.78,32.56,66.01v54.87c0,15.16,0.45,26.32,5.35,37.91h-49.96c-2.68-8.03-4.46-12.94-4.46-38.36v-57.09
			c0-28.99-8.47-38.36-30.78-38.36h-16.95v133.81h-49.07V91.31z M325.03,225.12c18.29,0,29.44-8.03,29.44-33v-24.09
			c0-22.3-7.58-32.11-24.98-32.11h-22.3v89.21H325.03z"/>
		<path class="st0" d="M542.25,342.44H485.6l-8.48,61.11h-45.49l50.85-312.23h66.46l50.85,312.23h-49.07L542.25,342.44z M536,300.06
			l-22.3-157.45l-21.86,157.45H536z"/>
		<path class="st0" d="M629.2,91.31h69.14L730.9,317.9l32.56-226.59h69.13v312.23h-46.38V167.14l-36.58,236.41H708.6l-36.58-236.41
			v236.41H629.2V91.31z"/>
		<path class="st0" d="M875.39,91.31h133.82v44.6h-84.75v82.52h67.35v44.6h-67.35v95.9h84.75v44.6H875.39V91.31z"/>
		<path class="st0" d="M210.29,222.88h-63.34v-86.94h59.95l20.74-44.64H97.87v312.25h49.08V267.52h42.54l20.62-44.35"/>
	</g>
	<g>
		<path class="st0" d="M280.29,470.26h133.82v44.6h-84.75v82.52h67.35v44.6h-67.35v95.9h84.75v44.6H280.29V470.26z"/>
		<path class="st0" d="M435.5,708.45v-17.84h46.39v21.41c0,22.3,9.81,30.33,25.42,30.33s25.87-8.03,25.87-31.22
			c0-25.87-10.7-41.93-42.82-70.03c-41.04-36.13-54.86-62-54.86-97.69c0-49.07,25.43-77.61,73.15-77.61s71.37,28.55,71.37,78.5
			v12.94h-46.38v-16.06c0-22.3-8.92-30.78-24.54-30.78c-15.61,0-24.98,8.48-24.98,29.89c0,22.75,11.15,38.81,43.26,66.91
			c41.04,36.13,54.42,61.55,54.42,100.36c0,50.85-25.87,79.4-74.04,79.4C459.58,786.95,435.5,758.41,435.5,708.45z"/>
		<path class="st0" d="M771.34,708.45V544.3c0-49.96,26.32-78.5,74.49-78.5c48.18,0,74.49,28.55,74.49,78.5v164.15
			c0,49.96-26.32,78.5-74.49,78.5C797.65,786.95,771.34,758.41,771.34,708.45z M871.25,711.57V541.18c0-22.3-9.81-30.78-25.43-30.78
			c-15.61,0-25.42,8.48-25.42,30.78v170.39c0,22.3,9.81,30.78,25.42,30.78C861.43,742.35,871.25,733.88,871.25,711.57z"/>
		<path class="st0" d="M955.98,470.26h72.71c50.85,0,72.71,23.64,72.71,71.82v19.18c0,32.11-10.26,52.63-32.11,61.56v0.89
			c24.53,7.58,32.56,30.78,32.56,66.01v54.87c0,15.16,0.45,26.32,5.35,37.91h-49.96c-2.68-8.03-4.46-12.94-4.46-38.36v-57.09
			c0-28.99-8.47-38.36-30.78-38.36h-16.95v133.81h-49.07V470.26z M1022.89,604.07c18.29,0,29.44-8.03,29.44-33v-24.09
			c0-22.3-7.58-32.11-24.98-32.11h-22.3v89.21H1022.89z"/>
		<path class="st0" d="M1236.53,721.39h-56.65l-8.48,61.11h-45.49l50.85-312.23h66.46l50.85,312.23H1245L1236.53,721.39z
			 M1230.28,679.01l-22.3-157.45l-21.86,157.45H1230.28z"/>
		<path class="st0" d="M1464.87,470.26h49.07v312.23h-49.07V470.26z"/>
		<path class="st0" d="M1549.6,708.45V544.3c0-49.96,26.32-78.5,74.49-78.5c48.18,0,74.49,28.55,74.49,78.5v164.15
			c0,49.96-26.32,78.5-74.49,78.5C1575.92,786.95,1549.6,758.41,1549.6,708.45z M1649.52,711.57V541.18
			c0-22.3-9.81-30.78-25.43-30.78s-25.42,8.48-25.42,30.78v170.39c0,22.3,9.81,30.78,25.42,30.78S1649.52,733.88,1649.52,711.57z"/>
		<path class="st0" d="M1734.24,470.26h60.66l49.51,186.89V470.26h43.71v312.23h-49.51l-60.66-227.93v227.93h-43.71V470.26z"/>
		<path class="st0" d="M243.71,744.58v-54.87c0-35.23-8.01-58.43-32.54-66.03v-0.88c21.85-8.94,32.14-29.45,32.14-61.53v-19.22
			c0-48.15-21.85-71.81-72.75-71.81h-52.18l-20.51,43.06V782.5h49.08v-133.8h16.94c22.32,0,30.74,9.35,30.74,38.33v57.14
			c0,25.42,1.81,30.33,4.5,38.33h49.96C244.18,770.93,243.71,759.77,243.71,744.58z M194.22,571.1c0,24.95-11.16,32.95-29.45,32.95
			h-17.82v-89.16h22.26c17.41,0,25.01,9.82,25.01,32.08V571.1z"/>
		<path class="st0" d="M598.78,470.25v44.64h51.3V782.5h49.08V514.89h29.8l21.39-44.64H598.78z"/>
		<path class="st0" d="M1286.96,470.25v44.64h51.3V782.5h49.08V514.89h29.8l21.39-44.64H1286.96z"/>
	</g>
</g>
</svg>
