<?xml version="1.0" encoding="utf-8"?>
<!-- Generator: Adobe Illustrator 28.2.0, SVG Export Plug-In . SVG Version: 6.00 Build 0)  -->
<svg version="1.1" id="Layer_1" xmlns="http://www.w3.org/2000/svg" xmlns:xlink="http://www.w3.org/1999/xlink" x="0px" y="0px"
	 viewBox="0 0 1884 829.75" style="enable-background:new 0 0 1884 829.75;" xml:space="preserve">
<style type="text/css">
	.st0{fill:#0A223E;}
	.st1{fill:#E0B969;}
	.st2{fill:#0A223D;}
	.st3{fill:#FFFFFF;}
	.st4{fill:#E1B969;}
	.st5{fill:#333333;}
	.st6{fill:#CCCCCC;}
	.st7{fill:#999999;}
</style>
<g>
	<g>
		<path class="st3" d="M219.77,95.42h66.19c46.3,0,66.19,21.52,66.19,65.38v17.46c0,29.24-9.34,47.92-29.24,56.04v0.81
			c22.33,6.9,29.64,28.02,29.64,60.1v49.95c0,13.8,0.41,23.96,4.87,34.51h-45.48c-2.44-7.31-4.06-11.78-4.06-34.93v-51.98
			c0-26.4-7.71-34.92-28.02-34.92h-15.43v121.82h-44.67V95.42z M280.69,217.25c16.65,0,26.8-7.31,26.8-30.05v-21.93
			c0-20.3-6.9-29.24-22.74-29.24h-20.31v81.22H280.69z"/>
		<path class="st3" d="M478.44,324.05h-51.57l-7.72,55.63h-41.42l46.29-284.26h60.51l46.3,284.26h-44.67L478.44,324.05z
			 M472.75,285.47l-20.3-143.35l-19.9,143.35H472.75z"/>
		<path class="st3" d="M557.6,95.42h62.95l29.64,206.29l29.65-206.29h62.94v284.26h-42.23V164.46l-33.3,215.23h-37.36l-33.3-215.23
			v215.23H557.6V95.42z"/>
		<path class="st3" d="M781.74,95.42h121.83v40.61h-77.16v75.13h61.32v40.61h-61.32v87.31h77.16v40.61H781.74V95.42z"/>
		<path class="st3" d="M176.22,215.21h-57.66v-79.15h54.58l18.89-40.64H73.87v284.28h44.68V255.85h38.73l18.78-40.38"/>
	</g>
	<g>
		<path class="st3" d="M239.95,440.42h121.83v40.61h-77.16v75.13h61.32v40.61h-61.32v87.31h77.16v40.61H239.95V440.42z"/>
		<path class="st3" d="M381.25,657.28v-16.24h42.23v19.49c0,20.31,8.93,27.62,23.14,27.62s23.55-7.31,23.55-28.43
			c0-23.55-9.75-38.17-38.98-63.76c-37.36-32.89-49.95-56.45-49.95-88.94c0-44.67,23.15-70.66,66.6-70.66s64.97,25.99,64.97,71.47
			v11.78H470.6v-14.62c0-20.3-8.12-28.02-22.34-28.02c-14.21,0-22.74,7.72-22.74,27.21c0,20.71,10.15,35.33,39.39,60.92
			c37.36,32.89,49.54,56.04,49.54,91.37c0,46.3-23.55,72.29-67.41,72.29C403.18,728.75,381.25,702.76,381.25,657.28z"/>
		<path class="st3" d="M687.01,657.28V507.83c0-45.48,23.96-71.47,67.81-71.47c43.86,0,67.82,25.99,67.82,71.47v149.45
			c0,45.48-23.96,71.47-67.82,71.47C710.97,728.75,687.01,702.76,687.01,657.28z M777.97,660.12V504.99
			c0-20.3-8.94-28.02-23.15-28.02s-23.14,7.72-23.14,28.02v155.13c0,20.31,8.93,28.02,23.14,28.02S777.97,680.43,777.97,660.12z"/>
		<path class="st3" d="M855.11,440.42h66.19c46.3,0,66.19,21.52,66.19,65.38v17.46c0,29.24-9.34,47.92-29.24,56.04v0.81
			c22.33,6.9,29.64,28.02,29.64,60.1v49.95c0,13.8,0.41,23.96,4.87,34.51h-45.48c-2.44-7.31-4.06-11.78-4.06-34.93v-51.98
			c0-26.4-7.71-34.92-28.02-34.92h-15.43v121.82h-44.67V440.42z M916.02,562.25c16.65,0,26.8-7.31,26.8-30.05v-21.93
			c0-20.3-6.9-29.24-22.74-29.24h-20.31v81.22H916.02z"/>
		<path class="st3" d="M1110.53,669.06h-51.57l-7.72,55.63h-41.42l46.29-284.26h60.51l46.3,284.26h-44.67L1110.53,669.06z
			 M1104.84,630.47l-20.3-143.35l-19.9,143.35H1104.84z"/>
		<path class="st3" d="M1318.41,440.42h44.67v284.26h-44.67V440.42z"/>
		<path class="st3" d="M1395.56,657.28V507.83c0-45.48,23.96-71.47,67.81-71.47c43.86,0,67.82,25.99,67.82,71.47v149.45
			c0,45.48-23.96,71.47-67.82,71.47C1419.52,728.75,1395.56,702.76,1395.56,657.28z M1486.52,660.12V504.99
			c0-20.3-8.94-28.02-23.15-28.02c-14.21,0-23.14,7.72-23.14,28.02v155.13c0,20.31,8.93,28.02,23.14,28.02
			C1477.59,688.14,1486.52,680.43,1486.52,660.12z"/>
		<path class="st3" d="M1563.66,440.42h55.23l45.08,170.15V440.42h39.8v284.26h-45.08l-55.23-207.51v207.51h-39.8V440.42z"/>
		<path class="st3" d="M206.65,690.17v-49.95c0-32.08-7.29-53.2-29.63-60.11v-0.8c19.89-8.14,29.26-26.81,29.26-56.01v-17.5
			c0-43.83-19.9-65.38-66.23-65.38h-47.5l-18.67,39.21v245.07h44.68V602.88h15.43c20.32,0,27.98,8.51,27.98,34.9v52.03
			c0,23.14,1.65,27.61,4.1,34.9h45.48C207.07,714.16,206.65,704,206.65,690.17z M161.59,532.23c0,22.71-10.16,30-26.81,30h-16.23
			v-81.18h20.27c15.85,0,22.77,8.94,22.77,29.2V532.23z"/>
		<path class="st3" d="M529.91,440.42v40.64h46.71v243.64h44.68V481.06h27.13l19.47-40.64H529.91z"/>
		<path class="st3" d="M1156.44,440.42v40.64h46.71v243.64h44.68V481.06h27.13l19.47-40.64H1156.44z"/>
	</g>
</g>
</svg>
