<?xml version="1.0" encoding="UTF-8"?>
<svg id="Layer_1" data-name="Layer 1" xmlns="http://www.w3.org/2000/svg" version="1.1" viewBox="0 0 960 1109">
  <defs>
    <style>
      .cls-1 {
        fill: #0a223d;
      }

      .cls-1, .cls-2 {
        stroke-width: 0px;
      }

      .cls-2 {
        fill: #fff;
      }
    </style>
  </defs>
  <path class="cls-1" d="M440.22,451.12h-77.2v-105.97h73.07l25.28-54.41h-158.17v380.58h59.82v-165.79h51.85l25.14-54.05"/>
  <path class="cls-2" d="M609.62,794.94v-66.87c0-42.94-9.76-71.22-39.67-80.47v-1.07c26.63-10.9,39.17-35.89,39.17-74.99v-23.43c0-58.68-26.64-87.52-88.66-87.52h-63.6l-24.99,52.49v328.09h59.82v-163.08h20.65c27.21,0,37.46,11.39,37.46,46.72v69.65c0,30.98,2.21,36.96,5.48,46.72h60.89c-5.98-14.1-6.55-27.7-6.55-46.22ZM549.3,583.5c0,30.41-13.6,40.17-35.89,40.17h-21.72v-108.67h27.13c21.22,0,30.48,11.96,30.48,39.1v29.41Z"/>
</svg>