<?xml version="1.0" encoding="UTF-8"?>
<svg id="Layer_1" data-name="Layer 1" xmlns="http://www.w3.org/2000/svg" version="1.1" viewBox="0 0 976 1131">
  <defs>
    <style>
      .cls-1 {
        fill: #000;
        stroke-width: 0px;
      }
    </style>
  </defs>
  <path class="cls-1" d="M451.45,445.63h-87.75v-120.46h83.06l28.74-61.85h-179.8v432.61h68v-188.46h58.94l28.57-61.44"/>
  <path class="cls-1" d="M644.02,836.46v-76.02c0-48.82-11.09-80.95-45.09-91.48v-1.21c30.27-12.39,44.52-40.8,44.52-85.24v-26.63c0-66.71-30.28-99.49-100.79-99.49h-72.29l-28.41,59.66v372.95h68v-185.38h23.48c30.93,0,42.58,12.95,42.58,53.11v79.17c0,35.21,2.51,42.01,6.23,53.11h69.21c-6.8-16.03-7.45-31.49-7.45-52.54ZM575.45,596.11c0,34.57-15.46,45.66-40.8,45.66h-24.69v-123.53h30.84c24.12,0,34.65,13.6,34.65,44.44v33.43Z"/>
</svg>